<?xml version="1.0" encoding="UTF-8"?>
<svg id="Layer_1" data-name="Layer 1" xmlns="http://www.w3.org/2000/svg" viewBox="0 0 1700 1615.5">
  <defs>
    <style>
      .cls-1 {
        fill: none;
        stroke: #000;
        stroke-miterlimit: 10;
      }

      .cls-2, .cls-3 {
        fill: #002c48;
      }

      .cls-3, .cls-4 {
        fill-rule: evenodd;
      }

      .cls-4 {
        fill: #f77f00;
      }
    </style>
  </defs>
  <g>
    <path class="cls-2" d="m1090.28,1053.72v-424.52s88.02,31.45,113.17-29.03L656.47,74.06,109.5,594.13s18.86,60.47,106.88,12.09v102.8s27.91,344.69,325.17,344.69h548.73Z"/>
    <path class="cls-4" d="m1098.92,777.71c2.83-67.38-158.48-100.19-165.46-107.87-3.48-3.82,8.08-102.92-79.4-102.84-87.49-.07-75.93,99.02-79.41,102.84-6.99,7.68-168.29,40.49-165.46,107.87,2.82,67.39,88.42,32.78,106.67,52.61,15.97,17.36-74.84,128.47-85,199.03-3.31,23,3.15,27.46,25.5,27.46,40.54,0,79.24-.02,114.88-.02,16.1,0,21.83-9.25,30.13-22,18.39-28.22,40.6-73.59,52.68-73.59,12.08,0,34.29,45.36,52.68,73.58,8.31,12.75,14.03,22,30.13,22,35.63,0,74.34.02,114.88.02,22.35,0,28.82-4.46,25.5-27.46-10.15-70.56-100.96-181.67-85-199.03,18.26-19.83,103.86,14.78,106.68-52.61Z"/>
    <path class="cls-3" d="m1589.46,777.71c2.83-67.38-158.48-100.19-165.46-107.87-3.48-3.82,8.08-102.92-79.4-102.84-87.49-.07-75.93,99.02-79.41,102.84-6.99,7.68-168.29,40.49-165.46,107.87,2.82,67.39,88.42,32.78,106.67,52.61,15.97,17.36-74.84,128.47-85,199.03-3.31,23,3.15,27.46,25.5,27.46,40.54,0,79.24-.02,114.88-.02,16.1,0,21.83-9.25,30.13-22,18.39-28.22,40.6-73.59,52.68-73.59,12.08,0,34.29,45.36,52.68,73.58,8.31,12.75,14.03,22,30.13,22,35.63,0,74.34.02,114.88.02,22.35,0,28.82-4.46,25.5-27.46-10.15-70.56-100.96-181.67-85-199.03,18.26-19.83,103.86,14.78,106.68-52.61Z"/>
  </g>
  <g>
    <path class="cls-2" d="m342.33,1227.81c0,13.88-4.34,25.38-13.01,34.5-9.88,10.48-27.23,15.72-52.04,15.72-1.89,0-4.6-.04-8.14-.11h-8.03c-27.83,0-44.38-.57-49.66-1.7-2.19-.45-3.28-1.62-3.28-3.51,0-8.07.47-20.29,1.41-36.65.94-16.36,1.41-28.62,1.41-36.76,0-8.75-.45-25.19-1.36-49.32-.23-6.18-.64-15.46-1.24-27.83l-.11-1.58c-.08-1.43,1.11-2.3,3.56-2.6,2.45-.3,11.18-.45,26.19-.45,24.06,0,38.12.08,42.19.23,18.55.68,32.24,3.7,41.06,9.05,11.69,7.17,17.53,19.27,17.53,36.31,0,4.45-1.36,9.16-4.07,14.14-1.96,3.55-4.52,7.09-7.69,10.63-2.79,3.09-4.19,4.52-4.19,4.3,0,.53.98,1.36,2.94,2.49,5.28,3.02,9.43,7.81,12.44,14.37,2.71,5.88,4.07,12.14,4.07,18.78Zm-48.64-63.69c0-6.48-3.24-10.78-9.73-12.9-3.62-1.13-9.58-1.7-17.87-1.7s-12.22.6-12.22,1.81c0,1.43-.13,3.6-.4,6.5-.27,2.9-.4,5.07-.4,6.5,0,7.54.64,11.76,1.92,12.67.83.68,5.62,1.02,14.37,1.02,16.21,0,24.32-4.64,24.32-13.91Zm3.39,63.24c0-6.79-2.83-11.39-8.48-13.8-3.62-1.51-9.5-2.26-17.65-2.26-9.73,0-15.01.36-15.84,1.07-.83.72-1.24,5.34-1.24,13.86s.49,13.82,1.47,14.76c.98.94,6.41,1.41,16.29,1.41,8.14,0,13.88-.64,17.19-1.92,5.5-2.19,8.26-6.56,8.26-13.12Z"/>
    <path class="cls-2" d="m464.73,1221.02c0,17.19-5.26,31.15-15.78,41.86-10.52,10.71-24.34,16.06-41.46,16.06s-30.24-5.28-40.95-15.84c-10.71-10.56-16.06-24.13-16.06-40.72,0-17.49,5.13-31.69,15.38-42.59,10.25-10.9,24.13-16.35,41.63-16.35s30.84,5.34,41.4,16.01c10.56,10.67,15.84,24.53,15.84,41.57Zm-37.1,0c0-5.96-1.85-11.22-5.54-15.78-3.7-4.56-8.48-6.84-14.37-6.84s-10.86,2.34-14.71,7.01c-3.62,4.38-5.43,9.58-5.43,15.61s1.81,11.35,5.43,15.72c3.85,4.68,8.75,7.01,14.71,7.01s10.75-2.34,14.59-7.01c3.54-4.37,5.32-9.62,5.32-15.72Z"/>
    <path class="cls-2" d="m592.1,1220.12c0,5.81.34,14.44,1.02,25.9.68,11.46,1.02,20.06,1.02,25.79,0,3.02-1.32,4.64-3.96,4.86-9.35.68-20.06,1.02-32.13,1.02-1.43,0-2.4-2.17-2.88-6.5-.49-4.34-1.07-6.54-1.75-6.62-.6.3-1.4.94-2.38,1.92-8.45,8.52-17.5,12.78-27.15,12.78-14.71,0-26.89-5.81-36.54-17.42-9.13-10.86-13.69-23.83-13.69-38.91,0-17.42,4.71-31.45,14.14-42.08,9.8-11.01,23.23-16.52,40.27-16.52,11.84,0,21.19,4.15,28.05,12.44.3.38.57.57.79.57.68,0,1.45-1.83,2.32-5.49.87-3.66,1.9-5.49,3.11-5.49,2.79,0,8.11.79,15.95,2.38,7.47,1.51,12.82,2.79,16.06,3.85,1.13.45,1.7,1.06,1.7,1.81,0,.3-.11,1.09-.34,2.38-2.41,13.65-3.62,28.09-3.62,43.33Zm-36.43.68c0-6.41-2.02-11.71-6.05-15.89-4.04-4.19-9.3-6.28-15.78-6.28s-11.73,2.08-15.72,6.22c-4,4.15-6,9.47-6,15.95,0,6.11,2.11,11.35,6.33,15.72,4.22,4.37,9.35,6.56,15.38,6.56,6.41,0,11.65-2.09,15.72-6.28,4.07-4.19,6.11-9.52,6.11-16.01Z"/>
    <path class="cls-2" d="m689.61,1206.2c0,2.94-1.62,4.41-4.86,4.41-1.43,0-3.53-.09-6.28-.28-2.75-.19-4.81-.28-6.17-.28-6.26,0-10.52.98-12.78,2.94-2.26,1.96-3.39,5.92-3.39,11.88,0,3.24.06,8.16.17,14.76.11,6.6.17,11.52.17,14.76,0,2.19.15,5.45.45,9.79.3,4.34.45,7.56.45,9.67,0,1.81-1.24,2.83-3.73,3.05-3.62.3-9.16.45-16.63.45s-12.9-.23-17.19-.68c-2.49-.3-3.73-1.54-3.73-3.73,0-6.03.04-15.06.11-27.09.07-12.03.11-21.06.11-27.09,0-17.72-1.62-32.31-4.86-43.78-.15-.68-.23-1.24-.23-1.7,0-1.13.57-1.88,1.7-2.26,4.15-.45,10.22-1.28,18.21-2.49,11.92-2.34,18.06-3.51,18.44-3.51,1.36,0,2.22,2.38,2.6,7.13.38,4.75,1.06,7.13,2.04,7.13-1.06,0,2.04-1.98,9.28-5.94,7.24-3.96,14.21-5.94,20.93-5.94,4.22,0,6.33.9,6.33,2.71,0,2.19-.23,5.28-.68,9.28-.45,4.3-.72,7.39-.79,9.28,0,2.19.04,5.09.11,8.71.15,4.45.23,7.39.23,8.82Z"/>
    <path class="cls-2" d="m822.76,1116.16c0-1.66-.3.83-.9,7.47-.83,8.37-1.47,19.08-1.92,32.13-.6,14.78-.9,31.6-.9,50.45,0,31.15.87,53.32,2.6,66.52.15,1.43.23,2.34.23,2.72,0,.83-.57,1.32-1.7,1.47-2.71.38-12.71.57-29.98.57-4.07,0-6.41-.79-7.01-2.38-.15-2.87-.3-5.73-.45-8.6-.08-.6-.38-1.21-.9-1.81-.45.23-1.02.68-1.7,1.36-8.15,7.99-18.33,11.99-30.54,11.99-15.91,0-28.66-5.58-38.24-16.74-9.13-10.63-13.69-24.06-13.69-40.27s4.49-29.98,13.46-40.61c9.5-11.31,22.32-16.97,38.46-16.97,11.39,0,20.25,3.62,26.58,10.86,1.06,1.21,1.81,1.81,2.26,1.81.68,0,1.02-.98,1.02-2.94,0-5.81-.15-14.48-.45-26.02-.3-11.54-.45-20.17-.45-25.9,0-2.19.6-3.43,1.81-3.73,4.83-.23,11.46-.68,19.91-1.36,15.08-1.88,21.76-2.83,20.02-2.83,1.66,0,2.49.94,2.49,2.83Zm-42.65,103.96c0-5.96-2.08-11.18-6.22-15.67-4.15-4.49-9.16-6.73-15.05-6.73-6.18,0-11.11,2.25-14.76,6.73-3.66,4.49-5.49,9.86-5.49,16.12s1.85,11.27,5.54,15.5c3.77,4.52,8.67,6.79,14.71,6.79s11.09-2.26,15.16-6.79c4.07-4.52,6.11-9.84,6.11-15.95Z"/>
    <path class="cls-2" d="m1047.08,1273.06c.15,2.04-.9,3.05-3.17,3.05-1.43,0-5.56-.83-12.39-2.49-6.83-1.66-11.03-2.79-12.61-3.39-15.76,6.18-30.88,9.28-45.36,9.28-23.3,0-42.42-7.77-57.35-23.3-14.78-15.31-22.17-34.65-22.17-58.03s7.16-43.74,21.49-59.5c14.78-16.29,33.97-24.43,57.58-24.43,11.46,0,22.25,2.19,32.35,6.56,10.93,4.83,19.53,11.61,25.79,20.36,1.28,1.81,1.92,3.09,1.92,3.85,0,2.41-3.38,7.83-10.12,16.23-6.75,8.41-11.1,12.61-13.07,12.61-.45,0-2.19-1.54-5.2-4.64-3.7-3.69-7.47-6.56-11.31-8.6-5.73-3.09-12.07-4.64-19-4.64-11.31,0-20.29,4.22-26.92,12.67-6.18,7.77-9.28,17.46-9.28,29.07,0,12.29,3.2,22.02,9.62,29.19,6.64,7.39,16.02,11.09,28.17,11.09,7.69,0,16.29-1.92,25.79-5.77-.23-2.49-.91-8.82-2.04-19-.98-7.84-1.47-14.18-1.47-19,0-1.43.49-2.3,1.47-2.6.38-.15.98-.23,1.81-.23,2.19,0,5.49.21,9.9.62,4.41.42,7.75.62,10.01.62,2.41,0,6.03-.17,10.86-.51,4.83-.34,8.44-.51,10.86-.51,1.88,0,2.83,1.24,2.83,3.73,0,3.62-.21,9.09-.62,16.4-.42,7.32-.62,12.78-.62,16.4,0,9.73.72,24.28,2.15,43.67l.11,1.24Z"/>
    <path class="cls-2" d="m1175.81,1220.12c0,5.81.34,14.44,1.02,25.9.68,11.46,1.02,20.06,1.02,25.79,0,3.02-1.32,4.64-3.96,4.86-9.35.68-20.06,1.02-32.13,1.02-1.43,0-2.4-2.17-2.88-6.5-.49-4.34-1.07-6.54-1.75-6.62-.6.3-1.4.94-2.38,1.92-8.45,8.52-17.5,12.78-27.15,12.78-14.71,0-26.89-5.81-36.54-17.42-9.13-10.86-13.69-23.83-13.69-38.91,0-17.42,4.71-31.45,14.14-42.08,9.8-11.01,23.23-16.52,40.27-16.52,11.84,0,21.19,4.15,28.05,12.44.3.38.57.57.79.57.68,0,1.45-1.83,2.32-5.49.87-3.66,1.9-5.49,3.11-5.49,2.79,0,8.11.79,15.95,2.38,7.47,1.51,12.82,2.79,16.06,3.85,1.13.45,1.7,1.06,1.7,1.81,0,.3-.11,1.09-.34,2.38-2.41,13.65-3.62,28.09-3.62,43.33Zm-36.43.68c0-6.41-2.02-11.71-6.05-15.89-4.04-4.19-9.3-6.28-15.78-6.28s-11.73,2.08-15.72,6.22c-4,4.15-6,9.47-6,15.95,0,6.11,2.11,11.35,6.33,15.72,4.22,4.37,9.35,6.56,15.38,6.56,6.41,0,11.65-2.09,15.72-6.28,4.07-4.19,6.11-9.52,6.11-16.01Z"/>
    <path class="cls-2" d="m1379.09,1272.49c0,2.64-1.13,4.11-3.39,4.41-2.26.3-7.84.45-16.74.45s-14.93-.23-17.19-.68c-2.26-.45-3.39-2.3-3.39-5.54,0-3.47.11-8.65.34-15.55s.34-12.08.34-15.55c0-13.2-.15-22.59-.45-28.17-.45-8.97-4.71-13.46-12.78-13.46-3.55,0-7.07,1.49-10.58,4.47-3.51,2.98-5.45,6.28-5.83,9.9-.3,3.17-.45,12.44-.45,27.83,0,3.55.11,8.92.34,16.12.23,7.2.34,12.61.34,16.23,0,2.49-1.09,3.73-3.28,3.73h-34.28c-2.11,0-3.17-1.54-3.17-4.64,0-3.54.11-8.86.34-15.95.23-7.09.34-12.44.34-16.06,0-2.79-.08-7.01-.23-12.67-.15-5.66-.23-9.92-.23-12.78,0-10.78-4.11-16.18-12.33-16.18-3.32,0-6.9,1.28-10.75,3.85-4.22,2.79-6.33,5.73-6.33,8.82,0,6.86.04,17.12.11,30.77.07,13.65.11,23.87.11,30.66,0,1.89-.23,3.05-.68,3.51-.45.45-1.62.75-3.51.9-3.39.3-8.75.45-16.06.45-4.75,0-10.14-.23-16.18-.68-1.81-.15-2.88-.41-3.22-.79-.34-.38-.51-1.51-.51-3.39,0-6.03.04-15.06.11-27.09.07-12.03.11-21.06.11-27.09,0-12.37-.9-26.28-2.71-41.74-.15-.9-.23-1.58-.23-2.04,0-1.28.53-2.15,1.58-2.6,1.66-.68,4.79-1.24,9.39-1.7,5.66-.53,9.01-.87,10.07-1.02.75-.15,3.73-.94,8.94-2.38,3.69-1.06,6.67-1.58,8.94-1.58,1.43,0,2.19,2.62,2.26,7.86.07,5.24.38,7.86.91,7.86.75-.3,1.62-.83,2.6-1.58,6.79-5.28,12.14-8.9,16.06-10.86,5.81-2.79,12.1-4.19,18.89-4.19s13.12,1.55,18.55,4.64c6.11,3.47,10.07,8.33,11.88,14.59,4-5.43,9.5-9.99,16.52-13.69,7.01-3.69,13.84-5.54,20.48-5.54,9.96,0,18.06,2.3,24.32,6.9,7.09,5.2,10.63,12.63,10.63,22.29,0,4-.11,10.01-.34,18.04-.23,8.03-.34,14.05-.34,18.04,0,4.75.11,11.9.34,21.44.23,9.54.34,16.69.34,21.44Z"/>
    <path class="cls-2" d="m1504.21,1215.25c0,7.62-2.45,11.95-7.35,13.01-.83.15-8.64.98-23.42,2.49-8.9.98-22.17,2.15-39.82,3.51,1.06,4.9,4.26,8.64,9.62,11.2,4.37,2.11,9.35,3.17,14.93,3.17,6.71,0,13.46-1.81,20.25-5.43,2.87-1.81,5.73-3.62,8.6-5.43,1.58.75,4.24,4.6,7.98,11.54,3.73,6.94,5.6,11.35,5.6,13.24,0,.53-.57,1.4-1.7,2.6-9.2,9.88-23.49,14.82-42.87,14.82-17.95,0-32.43-5.24-43.44-15.72-11.31-10.63-16.97-24.85-16.97-42.65s5.05-31.56,15.16-42.65c10.41-11.46,24.21-17.19,41.4-17.19,14.48,0,26.77,5.28,36.88,15.84,10.1,10.56,15.16,23.12,15.16,37.67Zm-39.59-6.9c0-4.68-1.66-8.78-4.98-12.33-3.32-3.54-7.28-5.32-11.88-5.32s-8.67,2-11.76,6c-2.87,3.7-4.3,8.03-4.3,13.01,0,2.04,1.06,3.05,3.17,3.05,5.58,0,14.25-.87,26.02-2.6,2.49-.38,3.73-.98,3.73-1.81Z"/>
    <path class="cls-2" d="m1582.83,1185.16c0,.75-.57,1.77-1.7,3.05-2.11-.53-4.22-.79-6.33-.79-4.45,0-8.18.98-11.2,2.94-3.62,2.26-5.43,5.47-5.43,9.62,0,2.64,1.92,6,5.77,10.07,5.81,6.11,9.39,10.22,10.75,12.33,3.85,5.73,5.77,11.88,5.77,18.44,0,3.85-.75,7.92-2.26,12.22-1.74,4.75-3.92,8.22-6.56,10.41-5.58,4.83-12.1,8.9-19.57,12.22-8.07,3.47-15.5,5.2-22.29,5.2-1.51,0-4.88-4.09-10.12-12.27-5.24-8.18-7.86-13.18-7.86-14.99,0-.68.41-1.09,1.24-1.24,5.28-.98,10.59-1.96,15.95-2.94,6.64-2.11,9.95-5.58,9.95-10.41,0-3.32-1.92-7.16-5.77-11.54-6.86-7.62-10.45-11.65-10.75-12.1-3.85-5.43-5.77-11.16-5.77-17.19,0-11.31,5.73-20.93,17.19-28.85,10.25-7.01,21.23-10.52,32.92-10.52,1.21,0,4.19,4.05,8.94,12.16,4.75,8.11,7.13,12.84,7.13,14.2Z"/>
  </g>
  <g>
    <path class="cls-2" d="m392.33,1363.11c0,1.27-1.15,1.9-3.45,1.9-8.63,0-21.72-.75-39.26-2.24-17.54-1.49-30.69-2.24-39.43-2.24-11.04,0-17.49.4-19.33,1.21-4.26,1.96-6.38,7.48-6.38,16.57,0,10.93,2.76,17.14,8.28,18.64,2.3.58,5.81.86,10.53.86,7.94,0,19.81-.43,35.63-1.29,15.82-.86,27.7-1.29,35.63-1.29,3.8,0,5.69,10.12,5.69,30.37,0,17.6-.63,27.84-1.9,30.72-.81,2.07-2.36,3.11-4.66,3.11,1.49,0-2.13-.4-10.87-1.21-12.31-1.15-30.95-1.73-55.91-1.73-8.05,0-12.6.06-13.63.17-5.87.92-8.8,3.39-8.8,7.42,0,16.34.69,35.15,2.07,56.43,1.15,19.21,1.73,27.78,1.73,25.71,0,2.99-3.62,4.72-10.87,5.18,1.96-.12-3.17-.17-15.36-.17-21.51,0-35.37-.75-41.59-2.24-3.34-.8-5-2.59-5-5.35,0-12.77.43-31.95,1.29-57.55.86-25.6,1.29-44.78,1.29-57.55,0-15.19-.69-34.28-2.07-57.29-2.07-35.55-3.17-54.64-3.28-57.29l-.17-2.07c-.12-2.87,1.61-4.31,5.18-4.31,8.51,0,21.37.17,38.57.52,17.2.34,30.11.52,38.74.52,9.2,0,23.04-.69,41.5-2.07,18.46-1.38,32.29-2.07,41.5-2.07,5.75,0,8.97,2.36,9.66,7.08,0,4.95.23,12.37.69,22.26.23,2.53.98,7.42,2.24,14.67,1.15,6.33,1.73,11.22,1.73,14.67Z"/>
    <path class="cls-2" d="m618.38,1547.23c0,.81-1.15,1.38-3.45,1.73-4.37.69-15.36,1.04-32.96,1.04-15.07,0-25.31-.34-30.72-1.04-2.53-.35-3.97-.63-4.31-.86-.69-.35-1.5-1.49-2.42-3.45-1.73-4.49-4.26-11.16-7.59-20.02-4.49-11.5-11.5-28.47-21.05-50.9-2.07-4.49-6.85-6.96-14.32-7.42,3.45.23-2.48.35-17.77.35-1.73,0-2.59,2.93-2.59,8.8,0,7.82.72,19.5,2.16,35.03,1.44,15.53,2.16,27.21,2.16,35.03,0,1.96-.52,3.11-1.55,3.45-1.61.11-3.22.23-4.83.35-6.79.46-17.37.69-31.75.69-16.45,0-26.34-.34-29.68-1.04-3.34-.69-5-2.47-5-5.35,0-12.65.6-31.75,1.81-57.29s1.81-44.69,1.81-57.46c0-48.66-1.09-86.62-3.28-113.89l-.17-2.42c-.12-1.95,1.7-3.28,5.44-3.97,3.74-.69,21.31-1.38,52.72-2.07,21.28-.46,38.25-.69,50.9-.69,26.23,0,47.63,5.93,64.19,17.77,18.75,13.35,28.13,32.61,28.13,57.81,0,16.8-2.42,30.2-7.25,40.21-4.83,10.01-13.75,19.73-26.75,29.16-2.65,1.84-3.97,3.57-3.97,5.18,0-.11,7.02,14.32,21.05,43.31,14.03,28.99,21.05,44.98,21.05,47.97Zm-72.47-154.78c0-14.03-4.6-23.75-13.8-29.16-7.13-4.14-18.29-6.21-33.48-6.21-10.93,0-16.74,1.67-17.43,5-.69,3.91-1.04,15.19-1.04,33.82,0,2.65.06,6.56.17,11.73.11,5.18.17,9.03.17,11.56,0,.58,1.84,1.15,5.52,1.73,7.02,1.04,14.38,1.55,22.09,1.55,25.19,0,37.79-10.01,37.79-30.02Z"/>
    <path class="cls-2" d="m707.93,1421.43c0,13.58.35,33.99,1.04,61.26.69,27.26,1.04,47.69,1.04,61.26,0,2.3-.52,3.74-1.55,4.31-.23.12-1.73.35-4.49.69-7.48.92-17.49,1.38-30.02,1.38-16.8,0-27.5-.46-32.1-1.38-3.34-.69-5-2.47-5-5.35,0,1.84.52-8.28,1.55-30.37,2.07-46.59,3.11-77.19,3.11-91.8,0-12.31-.4-30.77-1.21-55.39-.81-24.62-1.21-43.08-1.21-55.39,0-2.53,1.32-3.8,3.97-3.8,3.56,0,8.94.17,16.13.52,7.19.35,12.57.52,16.13.52s8.83-.17,15.79-.52c6.96-.35,12.22-.52,15.79-.52,3.34,0,5,1.27,5,3.8,0,12.31-.66,30.77-1.98,55.39-1.32,24.62-1.98,43.08-1.98,55.39Z"/>
    <path class="cls-2" d="m919.83,1495.29c0,4.95-.98,14.04-2.93,27.26-2.07,14.38-3.91,22.95-5.52,25.71-1.38,2.18-3.28,3.28-5.69,3.28-1.04,0-2.76-.17-5.18-.52-8.4-1.15-32.9-1.73-73.51-1.73-8.86,0-22.03-.06-39.52-.17-17.49-.12-30.6-.17-39.34-.17-3.8,0-5.69-1.67-5.69-5,0-12.88.72-32.24,2.16-58.07,1.44-25.82,2.16-45.18,2.16-58.07s-.69-37.56-2.07-73.34c-.35-9.2-.98-22.95-1.9-41.24l-.17-2.42c-.23-2.65,1.21-3.97,4.31-3.97,8.51,0,21.31.23,38.39.69,17.08.46,29.88.69,38.39.69s21.05-.23,37.96-.69c16.91-.46,29.56-.69,37.96-.69,5.98,0,9.43,2.24,10.35,6.73.57,2.65,1.47,10.67,2.67,24.07,1.21,13.4,1.81,21.54,1.81,24.42,0,2.42-1.15,3.62-3.45,3.62-.69,0-1.9-.06-3.62-.17-30.6-2.53-58.1-3.8-82.48-3.8-6.1,0-9.84,1.44-11.22,4.31-.58,1.38-.86,5.81-.86,13.29s1.15,13,3.45,15.53c1.95,2.19,5.69,3.28,11.22,3.28,1.15,0,3.39-.09,6.73-.26,3.34-.17,6.1-.26,8.28-.26,14.5,0,29.16-.4,44-1.21,1.26-.11,4.43-.4,9.49-.86,3.91-.46,7.02-.69,9.32-.69,2.76,0,4.14,1.32,4.14,3.97,0-2.42-1.04,6.38-3.11,26.4-.92,9.21-1.38,18.41-1.38,27.61,0,2.3-1.67,3.45-5,3.45l-15.53-1.73c-6.56-.69-21.51-1.04-44.87-1.04h-18.29c-4.72,0-7.48,1.15-8.28,3.45-.12.58-.17,4.14-.17,10.7,0,8.74.57,14.38,1.73,16.91,1.95,4.37,9.32,6.96,22.09,7.77-.23,0,8.17,0,25.19,0,6.1,0,15.16-.54,27.18-1.64,12.02-1.09,21.02-1.64,27-1.64,2.53,0,3.8,2.07,3.8,6.21Z"/>
    <path class="cls-2" d="m1173.67,1312.2c0,13.11-.55,32.82-1.64,59.1-1.09,26.29-1.64,46.05-1.64,59.27v113.71c0,3.11-1.67,4.66-5,4.66-2.76,0-6.93.11-12.51.35-5.58.23-9.75.35-12.51.35-2.99,0-7.48-.23-13.46-.69-5.98-.46-10.47-.69-13.46-.69-2.07,0-4.55-1.9-7.42-5.69-8.28-11.16-26.92-35.89-55.91-74.2-7.94-10.7-20.02-26.46-36.24-47.28-.46-.69-1.32-1.38-2.59-2.07-.92.81-1.38,2.07-1.38,3.8,0,13.35.37,33.36,1.12,60.05.75,26.69,1.12,46.71,1.12,60.05,0,4.03-1.55,6.04-4.66,6.04h-59.7c-3.34,0-5-1.78-5-5.35,0-12.42.6-31.17,1.81-56.25,1.21-25.08,1.81-43.89,1.81-56.43,0-13.23-.55-33.01-1.64-59.36-1.09-26.34-1.64-46.07-1.64-59.19,0-2.53,2.24-3.8,6.73-3.8,6.67,0,14.9-.46,24.68-1.38,2.3-.23,6.84-.98,13.63-2.24,5.75-1.04,10.29-1.55,13.63-1.55,1.38,0,3.51,1.96,6.38,5.87l64.36,88.18c5.75,7.94,14.44,19.56,26.06,34.86,2.87,3.57,5.35,5.35,7.42,5.35,1.49,0,2.24-4.49,2.24-13.46,0-12.08-.66-30.25-1.98-54.53-1.32-24.27-1.98-42.51-1.98-54.7,0-4.25,1.21-6.38,3.62-6.38,6.9,0,17.31-.29,31.23-.86,13.92-.57,24.33-.86,31.23-.86,2.18,0,3.28,1.78,3.28,5.35Z"/>
    <path class="cls-2" d="m1430.95,1426.61c0,33.82-10.87,63.16-32.61,88-19.21,22.2-46.19,33.88-80.93,35.03-6.67.23-25.02.34-55.05.34-5.64,0-14.12-.17-25.45-.52-11.33-.35-19.82-.52-25.45-.52-3.34,0-5-1.32-5-3.97,0-12.65.49-31.66,1.47-57.03.98-25.37,1.47-44.37,1.47-57.03s-.49-33.04-1.47-59.45c-.98-26.4-1.47-46.16-1.47-59.27,0-2.42,1.67-3.85,5-4.31,8.17-.92,21.57-1.38,40.21-1.38,35.43,0,58.38.52,68.85,1.55,27.26,2.76,48.6,9.66,64.02,20.71,14.49,10.35,25.94,24.85,34.34,43.48,8.05,17.6,12.08,35.72,12.08,54.36Zm-66.09,0c0-19.44-5.81-35.31-17.43-47.63-11.73-12.77-27.26-19.15-46.59-19.15-17.72,0-26.57,2.36-26.57,7.07,0,6.79-.12,17-.35,30.63-.23,13.63-.34,23.84-.34,30.63s.11,16.71.34,30.11c.23,13.4.35,23.5.35,30.28,0,4.95,9.2,7.42,27.61,7.42,19.9,0,35.55-6.61,46.94-19.84,10.7-12.54,16.05-29.05,16.05-49.52Z"/>
    <path class="cls-2" d="m1575.38,1469.58c0,23.35-9.84,43.37-29.51,60.05-17.26,14.73-38.25,24.1-62.98,28.13-.92.11-1.67.17-2.24.17-2.65,0-8.51-8.08-17.6-24.24-9.09-16.16-13.63-26.03-13.63-29.59,0-1.26.86-2.07,2.59-2.42,16.68-3.8,27.72-7.02,33.13-9.66,11.96-5.98,17.95-14.84,17.95-26.57,0-7.48-3.91-15.82-11.73-25.02-13.58-15.64-20.94-24.33-22.09-26.06-7.94-11.96-11.91-25.19-11.91-39.69,0-21.05,9.72-38.54,29.16-52.46,15.88-11.5,35.37-18.98,58.5-22.43,1.26-.11,2.24-.17,2.93-.17,1.73,0,3.11,1.38,4.14,4.14,2.99,8.4,9.95,23.58,20.88,45.56.35.69.52,1.27.52,1.73,0,1.96-1.04,2.93-3.11,2.93-.92,0-2.48-.17-4.66-.52-2.19-.35-3.86-.52-5-.52-8.28,0-15.53,1.9-21.74,5.69-7.48,4.37-11.22,10.47-11.22,18.29,0,7.02,4.14,15.65,12.42,25.88,14.61,18.41,22.26,28.07,22.95,28.99,8.17,12.66,12.25,25.25,12.25,37.79Z"/>
  </g>
  <rect class="cls-1" x="8.5" y="-1" width="1691.5" height="1625"/>
</svg>